Original Release here:
 
http://forum.tntvillage.scambioetico.org/index.php?showtopic=343477


Roma: durante un congresso di parapsicologia, la sensitiva tedesca Helga Ulmann afferma di percepire tra il pubblico del teatro l'inquietante presenza di un assassino. A congresso finito, la medium rivela allo psichiatra Giordani di conoscere l'identità dell'assassino; i due però non si accorgono che il killer è ancora nel teatro e li sta osservando.
Tornata a casa, la sensitiva viene uccisa a sangue freddo, dopo aver sentito una nenia per bambini.
Intanto il pianista inglese Marc Daly, che abita nello stesso stabile della Ulmann, assiste involontariamente all'epilogo del delitto insieme all'amico Carlo, un alcolista...................



A psychic who can read minds picks up the thoughts of a murderer in the audience and soon becomes a victim. An English pianist gets involved in solving the murders, but finds many of his avenues of inquiry cut off by new murders, and he begins to wonder how the murderer can track his movements so closely...................


AVINAPTIC

General
Complete name : Profondo Rosso - Deep Red (1975) Dario ArgentoProfondo Rosso - Deep Red (1975).avi
Format : AVI
Format/Info : Audio Video Interleave
Format profile : OpenDML
File size : 2.13 GiB
Duration : 2h 6mn
Overall bit rate : 2 414 Kbps
Writing application : VirtualDubMod 1.5.10.2 (build 2540/release)
Writing library : VirtualDubMod build 2540/release

Video
ID : 0
Format : MPEG-4 Visual
Format profile : Simple@L3
Format settings, BVOP : Yes
Format settings, QPel : No
Format settings, GMC : No warppoints
Format settings, Matrix : Default (H.263)
Codec ID : XVID
Codec ID/Hint : XviD
Duration : 2h 6mn
Bit rate : 1 500 Kbps
Width : 720 pixels
Height : 304 pixels
Display aspect ratio : 2.35:1
Frame rate : 23.976 fps
Color space : YUV
Chroma subsampling : 4:2:0
Bit depth : 8 bits
Scan type : Progressive
Bits/(Pixel*Frame) : 0.286
Stream size : 1.33 GiB (62%)

Audio #1
ID : 1
Format : AC-3
Format/Info : Audio Coding 3
Mode extension : CM (complete main)
Codec ID : 2000
Duration : 2h 6mn
Bit rate mode : Constant
Bit rate : 448 Kbps
Channel(s) : 6 channels
Channel positions : Front: L C R, Side: L R, LFE
Sampling rate : 48.0 KHz
Bit depth : 16 bits
Stream size : 406 MiB (19%)
Alignment : Split accross interleaves
Interleave, duration : 42 ms (1.00 video frame)
Interleave, preload duration : 500 ms

Audio #2
ID : 2
Format : AC-3
Format/Info : Audio Coding 3
Mode extension : CM (complete main)
Codec ID : 2000
Duration : 2h 6mn
Bit rate mode : Constant
Bit rate : 448 Kbps
Channel(s) : 2 channels
Channel positions : Front: L R
Sampling rate : 48.0 KHz
Bit depth : 16 bits
Stream size : 406 MiB (19%)
Alignment : Split accross interleaves
Interleave, duration : 42 ms (1.00 video frame)
Interleave, preload duration : 500 ms